<?xml version="1.0" encoding="utf-8"?>
<!-- Generator: Adobe Illustrator 27.0.0, SVG Export Plug-In . SVG Version: 6.00 Build 0)  -->
<svg version="1.1" id="Capa_1" xmlns="http://www.w3.org/2000/svg" xmlns:xlink="http://www.w3.org/1999/xlink" x="0px" y="0px"
	 viewBox="0 0 27 27" style="enable-background:new 0 0 27 27;" xml:space="preserve">
<style type="text/css">
	.st0{fill:#9A9A99;}
	.st1{fill:#1B75BB;}
</style>
<g>
	<path class="st0" d="M26.1,26.4c-0.1,0-0.1,0-0.1,0c-2.4,0-4.8,0-7.2,0c-0.1,0-0.1,0-0.2-0.1c-2.2-3.3-4.5-6.6-6.7-9.8
		c0,0,0-0.1-0.1-0.1c0,0-0.1,0.1-0.1,0.1c-1.6,1.9-3.2,3.8-4.8,5.6c-1.2,1.4-2.4,2.8-3.6,4.2c0,0-0.1,0.1-0.1,0.1
		c-0.7,0-1.4,0-2.1,0c0,0,0,0-0.1,0c3.3-3.8,6.5-7.6,9.8-11.4C7.5,10.2,4.2,5.4,0.9,0.6c0.1,0,0.1,0,0.1,0c2.4,0,4.8,0,7.2,0
		c0.1,0,0.1,0,0.2,0.1c2.1,3.1,4.2,6.2,6.4,9.3c0,0,0.1,0.1,0.1,0.1c0,0,0.1-0.1,0.1-0.1c2.3-2.7,4.7-5.4,7-8.1
		c0.3-0.4,0.7-0.8,1-1.2c0,0,0.1-0.1,0.1-0.1c0.7,0,1.4,0,2,0c0,0,0,0,0.1,0c-3.1,3.6-6.2,7.3-9.4,10.9
		C19.3,16.5,22.7,21.4,26.1,26.4z M3.9,2.3C4,2.4,4.1,2.6,4.2,2.8c2.8,4.1,5.7,8.1,8.5,12.2c2.3,3.3,4.6,6.5,6.8,9.8
		c0,0.1,0.1,0.1,0.2,0.1c1.1,0,2.2,0,3.2,0c0,0,0.1,0,0.1,0c0,0,0-0.1-0.1-0.1c-0.4-0.5-0.7-1.1-1.1-1.6c-2.3-3.3-4.7-6.7-7-10
		c-2.5-3.6-5-7.1-7.5-10.7c0-0.1-0.1-0.1-0.2-0.1c-1.1,0-2.1,0-3.2,0C4,2.3,4,2.3,3.9,2.3z"/>
</g>
</svg>
